
<svg xmlns="http://www.w3.org/2000/svg" width="377.953" height="146.672" viewBox="0 0 100.00006 38.806967" version="1.1">
  <g>
    <path fill="#ff3b28" d="m 16.14372,31.390334 3.24252,-0.27561 c 0,0 2.55351,-0.1378 2.55351,-3.41478 0,-3.27697 -1.69086,-6.24389 -4.51997,-6.24389 H 14.31644 Z M 13.41934,0.345888 c 9.96873,-0.137806 12.24525,7.6577561 12.24525,12.866746 0,5.20898 -4.07073,5.93659 -4.07073,5.93659 3.76067,0.59117 6.76066,3.92878 6.76066,10.62054 0,6.69175 -6.48367,7.10516 -6.48367,7.10516 l -10.90029,0.7593 -5.96828,-25.94019 c 0,-1.9664601 1.31051,-3.5525798 3.89847,-3.5525798 2.58658,0 3.10334,2.3454198 3.10334,2.3454198 l 1.17409,5.34678 h 3.41478 c 0.37896,0 3.38033,-0.72484 2.34542,-5.20898 C 17.90347,6.1405341 14.41979,6.0716339 14.41979,6.0716339 H 6.14054 C 3.3817,6.0716339 2.03536,3.691764 2.03536,3.691764 L 0,0 Z m 0,0" id="path989"></path>
    <path fill="#ff3b28" d="m 29.28607,8.8662939 h 7.03764 l 1.48277,23.1455401 c 0,0 0.10335,2.58657 2.24207,2.58657 2.13871,0 2.17316,-2.27652 2.17316,-2.62103 0,-0.34451 -0.55121,-21.45605 -0.55121,-21.45605 0,0 0.37896,-2.76021 3.27697,-2.76021 2.89802,0 3.10472,2.82911 3.10472,2.82911 l 0.34452,27.044 c 0,0 -2.17317,0.20671 -2.86357,0.20671 -0.68902,0 -2.58658,-0.34451 -3.13779,-2.06982 0,0 -1.03491,3.03582 -5.38124,3.03582 -4.34633,0 -5.38124,-4.27743 -5.38124,-4.27743 z m 0,0" id="path991"></path>
    <path fill="#ff3b28" d="m 57.67641,9.7275739 c -0.13918,1.0004501 -0.65594,7.2788001 -0.65594,8.3826101 0,1.1038 0.31006,3.24252 2.24207,3.24252 1.93201,0 2.27651,-1.86311 2.51767,-3.13917 0.24254,-1.27607 0.6215,-4.24298 0.79375,-8.21035 0.17226,-3.9660001 -2.13871,-3.8971 -2.13871,-3.8971 -2.17317,0 -2.62103,2.62103 -2.75884,3.6214899 M 58.05537,1.621954 c 0,0 3.89847,-0.41479 5.38124,3.69038 0,0 0.89711,-2.62102 3.93155,-2.62102 h 2.07119 l -2.76021,24.59384 c 0,0 -0.17226,6.55533 -8.31371,6.55533 0,0 -6.5884,0.44786 -6.93291,-5.07118 0,0 -0.0345,-3.00137 2.51768,-3.00137 0,0 2.4846,-0.24115 2.4846,2.58796 0,0 0.17226,2.34542 1.99953,2.34542 1.82866,0 2.79467,-1.10381 3.20946,-8.0381 0,0 -1.3808,2.51768 -5.31372,2.51768 -3.93154,0 -5.86355,-2.44877 -5.38124,-9.79647 0.48369,-7.3463302 0.34589,-13.45242 7.10654,-13.76247" id="path993"></path>
    <path fill="#ff3b28" d="m 69.43935,24.801934 h 5.2076 c 0,0 -1.31051,4.10518 1.06936,4.10518 2.37988,0 2.65686,-3.41478 2.65686,-3.41478 0,0 0.24116,-2.06982 -2.48322,-3.55396 -2.72576,-1.48277 -4.83003,-4.0349 -4.62332,-7.20852 0.2067,-3.17363 1.7253,-10.34907 9.34861,-10.34907 0,0 5.7602,-0.3789602 5.7602,5.2434299 0,5.6224001 -2.79328,5.7960301 -3.48368,5.7960301 0,0 -2.17317,-0.0358 -2.17317,-2.06981 0,-2.03536 0.86265,-3.9329202 -1.0349,-3.9329202 -1.89756,0 -2.69131,2.6554802 -2.69131,3.4836802 0,0.8282 0.0689,1.86311 1.75975,3.20807 1.68948,1.34497 4.7942,2.96692 4.7942,7.17545 0,4.20853 -3.2067,9.86537 -9.24388,9.86537 -6.03719,0 -5.48459,-4.20853 -4.8631,-8.34815" id="path995"></path>
    <path fill="#ff3b28" d="m 86.21421,27.458794 c 0,1.47312 1.19476,2.66788 2.66788,2.66788 1.47313,0 2.66788,-1.19476 2.66788,-2.66788 0,-1.47313 -1.19475,-2.66788 -2.66788,-2.66788 -1.47312,0 -2.66788,1.19475 -2.66788,2.66788" id="path997"></path>
    <path fill="#ff3b28" d="m 92.72268,2.932464 h 7.27742 l -7.58747,18.86948 c 0,0 -0.6215,1.62057 -2.2779,1.62057 0,0 -2.13872,0.0689 -1.68948,-2.51767 z m 0,0" id="path999"></path>
  </g>
</svg>