

<svg version="1.1" id="logos" xmlns="http://www.w3.org/2000/svg" xmlns:xlink="http://www.w3.org/1999/xlink" x="0px" y="0px" viewBox="0 0 125 40" enable-background="new 0 0 125 40" xml:space="preserve">
<g>
	<g>
		<path fill="#1A1A1A" d="M63.701,22.858L58.793,9.247c-0.083-0.229-0.3-0.382-0.544-0.382h-5.055c-0.409,0-0.689,0.412-0.537,0.792
			l8.353,21.114c0.088,0.22,0.301,0.367,0.539,0.367h4.305c0.237,0,0.451-0.147,0.54-0.367l8.353-21.114
			c0.151-0.38-0.13-0.792-0.538-0.792h-5.055c-0.243,0-0.461,0.152-0.544,0.382L63.701,22.858z"></path>
		<path fill="#1A1A1A" d="M79.244,31.136h4.632c0.319,0,0.579-0.259,0.579-0.579V9.444c0-0.32-0.26-0.579-0.579-0.579h-4.632
			c-0.32,0-0.58,0.26-0.58,0.579v21.114C78.665,30.877,78.924,31.136,79.244,31.136"></path>
		<path fill="#1A1A1A" d="M125,13.186V9.443c0-0.319-0.259-0.579-0.578-0.579h-13.542c-0.319,0-0.58,0.26-0.58,0.579v21.115
			c0,0.32,0.261,0.579,0.58,0.579h13.542c0.32,0,0.578-0.259,0.578-0.579v-3.742c0-0.32-0.259-0.579-0.578-0.579h-8.665V22.28h7.996
			c0.32,0,0.581-0.259,0.581-0.58v-3.519c0-0.32-0.261-0.579-0.581-0.579h-7.996v-3.837h8.665C124.741,13.764,125,13.504,125,13.186
			"></path>
		<path fill="#1A1A1A" d="M102.845,19.546c0,0,2.914-1.712,2.914-4.968c0-3.254-2.297-5.714-6.066-5.714
			c-0.009,0-0.015,0.002-0.021,0.002V8.864H90.37c-0.319,0-0.58,0.26-0.58,0.579v21.114c0,0.32,0.26,0.579,0.58,0.579h9.301
			c3.756-0.01,6.601-1.835,6.601-6.108C106.273,20.746,102.845,19.546,102.845,19.546 M95.248,13.318h2.808
			c0.766,0,2.322,0.402,2.322,2.288c0,1.884-1.133,2.389-1.946,2.389h-3.184V13.318z M98.474,26.681h-3.225v-4.676h3.018
			c0.984,0,2.456,0.283,2.456,2.338C100.722,26.571,98.961,26.681,98.474,26.681"></path>
		<path fill="#1A1A1A" d="M0.403,17.66h3.712c0.223,0,0.404-0.181,0.404-0.402V7.573c0-0.223-0.181-0.403-0.404-0.403H0.403
			C0.181,7.17,0,7.35,0,7.573v9.685C0,17.479,0.181,17.66,0.403,17.66"></path>
		<path fill="#1A1A1A" d="M6.536,23.793h3.712c0.224,0,0.405-0.18,0.405-0.403V3.7c0-0.224-0.181-0.404-0.405-0.404H6.536
			c-0.223,0-0.404,0.18-0.404,0.404v19.69C6.133,23.613,6.313,23.793,6.536,23.793"></path>
		<path fill="#1A1A1A" d="M12.67,30.088h3.712c0.223,0,0.403-0.181,0.403-0.403V9.995c0-0.224-0.181-0.405-0.403-0.405H12.67
			c-0.223,0-0.404,0.181-0.404,0.405v19.69C12.266,29.907,12.447,30.088,12.67,30.088"></path>
		<path fill="#1A1A1A" d="M24.936,30.088h3.712c0.222,0,0.402-0.181,0.402-0.403V9.995c0-0.224-0.181-0.405-0.402-0.405h-3.712
			c-0.223,0-0.404,0.181-0.404,0.405v19.69C24.532,29.907,24.713,30.088,24.936,30.088"></path>
		<path fill="#1A1A1A" d="M31.068,23.793h3.712c0.223,0,0.404-0.18,0.404-0.403V3.7c0-0.224-0.181-0.404-0.404-0.404h-3.712
			c-0.223,0-0.402,0.18-0.402,0.404v19.69C30.666,23.613,30.845,23.793,31.068,23.793"></path>
		<path fill="#1A1A1A" d="M37.201,17.66h3.712c0.224,0,0.404-0.181,0.404-0.402V7.573c0-0.223-0.18-0.403-0.404-0.403h-3.712
			c-0.223,0-0.403,0.181-0.403,0.403v9.685C36.797,17.479,36.978,17.66,37.201,17.66"></path>
		<path fill="#1A1A1A" d="M18.802,36.704h3.712c0.223,0,0.405-0.18,0.405-0.402v-19.69c0-0.224-0.182-0.405-0.405-0.405h-3.712
			c-0.223,0-0.404,0.181-0.404,0.405v19.69C18.399,36.524,18.579,36.704,18.802,36.704"></path>
	</g>
	<rect x="0" y="0" fill="none" width="125" height="40"></rect>
</g>
</svg>
